# xmcd
#
# Track frame offsets: 
#        150
#        26874
#        50235
#        74461
#        101391
#        125084
#        151077
#        185096
#        205151
#        225460
#
# Disc length: 3330 seconds
#
# Revision: 4
# Processed by: cddbd v1.5.2PL0 Copyright (c) Steve Scherf et al.
# Submitted via: ExactAudioCopyFreeDBPlugin 1.0
#
DISCID=8d0d000a
DTITLE=Assemblage 23 - Defiance
DYEAR=2002
DGENRE=Electronic
TTITLE0=Opened
TTITLE1=Drive
TTITLE2=Blindhammer
TTITLE3=Cocoon
TTITLE4=Document
TTITLE5=Fallen Down
TTITLE6=Horizon
TTITLE7=Light
TTITLE8=Maps Of Reality
TTITLE9=Lullaby
EXTD=
EXTT0=
EXTT1=
EXTT2=
EXTT3=
EXTT4=
EXTT5=
EXTT6=
EXTT7=
EXTT8=
EXTT9=
PLAYORDER=
